<svg width="278" height="98" viewBox="0 0 278 98" fill="none" xmlns="http://www.w3.org/2000/svg">
<path d="M230.315 31.1547C233.039 31.1547 235.248 29.0383 235.248 26.4301C235.248 23.8218 233.039 21.7054 230.315 21.7054C227.592 21.7054 225.383 23.8218 225.383 26.4301C225.383 29.0383 227.592 31.1547 230.315 31.1547Z" fill="white" fill-opacity="0.87"/>
<path d="M123.663 69.4434C112.806 69.4434 104.928 62.1527 104.928 52.1189C104.928 42.0822 112.806 34.8506 123.663 34.8506C128.953 34.8506 133.745 36.5707 137.162 39.6876C140.58 42.8074 142.472 47.2341 142.472 52.1161C142.472 57.0009 140.583 61.4248 137.162 64.5783C133.745 67.7289 128.95 69.4434 123.663 69.4434ZM123.663 42.383C118.019 42.383 114.082 46.3853 114.082 52.1133C114.082 57.8413 118.022 61.8435 123.663 61.8435C129.433 61.8435 133.306 57.934 133.306 52.1133C133.306 46.2925 129.433 42.3746 123.663 42.3746V42.383Z" fill="white" fill-opacity="0.87"/>
<path d="M155.58 22.4502H146.49V69.0105H155.58V22.4502Z" fill="white" fill-opacity="0.87"/>
<path d="M169.265 22.4502H160.176V69.0105H169.265V22.4502Z" fill="white" fill-opacity="0.87"/>
<path d="M192.032 69.4434C181.175 69.4434 173.297 62.1527 173.297 52.1189C173.297 42.0822 181.175 34.8506 192.032 34.8506C197.322 34.8506 202.114 36.5707 205.532 39.6876C208.949 42.8074 210.841 47.2341 210.841 52.1161C210.841 57.0009 208.952 61.4248 205.532 64.5783C202.114 67.7289 197.313 69.4434 192.032 69.4434ZM192.032 42.383C186.389 42.383 182.448 46.3853 182.448 52.1133C182.448 57.8413 186.389 61.8435 192.032 61.8435C197.802 61.8435 201.675 57.934 201.675 52.1133C201.675 46.2925 197.802 42.3746 192.032 42.3746V42.383Z" fill="white" fill-opacity="0.87"/>
<path d="M234.862 34.845H225.775V69.0106H234.862V34.845Z" fill="white" fill-opacity="0.87"/>
<path d="M258.192 69.4434C247.337 69.4434 239.459 62.1527 239.459 52.1189C239.459 42.0822 247.337 34.8506 258.192 34.8506C263.484 34.8506 268.273 36.5707 271.691 39.6876C275.109 42.8074 277 47.2341 277 52.1161C277 57.0009 275.111 61.4248 271.691 64.5783C268.273 67.7289 263.478 69.4434 258.192 69.4434ZM258.192 42.383C252.551 42.383 248.61 46.3853 248.61 52.1133C248.61 57.8413 252.554 61.8435 258.192 61.8435C263.962 61.8435 267.838 57.934 267.838 52.1133C267.838 46.2925 263.959 42.3746 258.192 42.3746V42.383Z" fill="white" fill-opacity="0.87"/>
<path d="M64.2773 81.1608V34.6005H73.3668V37.0738C76.3404 35.5785 79.6541 34.8141 83.0099 34.845C88.3023 34.845 93.0915 36.5651 96.5092 39.682C99.9269 42.8018 101.818 47.2285 101.818 52.1105C101.818 56.9953 99.9297 61.4192 96.5092 64.5698C93.0915 67.7233 88.3051 69.4378 83.0099 69.4378C79.6513 69.4687 76.3348 68.6986 73.3668 67.1921V81.1552H64.2773V81.1608ZM83.0099 42.3746C77.3691 42.3746 73.4286 46.3769 73.4286 52.1048C73.4286 57.8328 77.3719 61.8351 83.0099 61.8351C88.7801 61.8351 92.6559 57.9256 92.6559 52.1048C92.6559 46.2841 88.7773 42.3746 83.0099 42.3746Z" fill="white" fill-opacity="0.87"/>
<path d="M217.088 69.0079C216.315 69.0079 215.559 68.7886 214.915 68.3783C214.271 67.9679 213.771 67.3833 213.473 66.6975C213.178 66.0118 213.099 65.2613 213.251 64.5334C213.403 63.8083 213.774 63.1393 214.322 62.6166C214.867 62.0938 215.564 61.7368 216.323 61.5907C217.082 61.4474 217.869 61.5204 218.583 61.8043C219.297 62.0882 219.907 62.5688 220.337 63.1843C220.767 63.7998 220.994 64.525 220.994 65.2641C220.992 66.2563 220.581 67.2063 219.848 67.9089C219.117 68.6116 218.125 69.0079 217.088 69.0079Z" fill="white" fill-opacity="0.87"/>
<path d="M52.2088 26.2389H43.6309L48.0772 33.6139L52.2088 26.2389Z" fill="white" fill-opacity="0.87"/>
<path d="M57.046 55.8458L51.2506 46.2167L32.9592 16L1 69.0078H18.1165C20.4043 69.005 22.65 68.4317 24.6343 67.344C26.6185 66.2563 28.2712 64.6908 29.4319 62.802L38.1813 48.1841L33.3218 40.1262L22.7596 57.7345C22.1609 58.7126 21.3065 59.5221 20.2807 60.0842C19.2548 60.6491 18.094 60.9442 16.9108 60.947H15.6123L32.9649 32.1637L55.1826 69.0078H61.4811V63.1421L57.0685 55.8486H57.046V55.8458Z" fill="white" fill-opacity="0.87"/>
</svg>
