<svg width="278" height="98" viewBox="0 0 278 98" fill="none" xmlns="http://www.w3.org/2000/svg">
<path d="M126.48 66.8416V40.9915H126.936L145.558 66.8416H151.419V28.8803H144.907V54.6654H144.451L125.829 28.8803H119.969V66.8416H126.48ZM169.846 67.4276C178.441 67.4276 183.715 61.8279 183.715 52.4515C183.715 43.1402 178.441 37.4753 169.846 37.4753C161.316 37.4753 155.977 43.1402 155.977 52.4515C156.042 61.8279 161.251 67.4276 169.846 67.4276ZM169.846 61.9581C165.288 61.9581 162.683 58.5071 162.683 52.4515C162.683 46.461 165.288 42.9449 169.846 42.9449C174.404 42.9449 177.008 46.461 177.008 52.4515C177.008 58.5071 174.404 61.9581 169.846 61.9581ZM189.64 31.0291V38.2567H185.082V43.4658H189.64V59.1582C189.64 64.758 192.245 66.9718 198.887 66.9718C200.124 66.9718 201.361 66.8416 202.338 66.6463V61.5674C201.556 61.6325 201.035 61.6976 200.124 61.6976C197.389 61.6976 196.152 60.4605 196.152 57.5955V43.4658H202.338V38.2567H196.152V31.0291H189.64ZM206.244 66.8416H212.756V38.0614H206.244V66.8416ZM209.5 33.3081C211.649 33.3081 213.407 31.55 213.407 29.4012C213.407 27.1874 211.649 25.4293 209.5 25.4293C207.351 25.4293 205.593 27.1874 205.593 29.4012C205.593 31.55 207.351 33.3081 209.5 33.3081ZM230.597 67.4276C239.192 67.4276 244.466 61.8279 244.466 52.4515C244.466 43.1402 239.192 37.4753 230.597 37.4753C222.067 37.4753 216.728 43.1402 216.728 52.4515C216.728 61.8279 221.937 67.4276 230.597 67.4276ZM230.597 61.9581C226.039 61.9581 223.434 58.5071 223.434 52.4515C223.434 46.461 226.039 42.9449 230.597 42.9449C235.09 42.9449 237.759 46.461 237.759 52.4515C237.694 58.5071 235.09 61.9581 230.597 61.9581ZM248.308 66.8416H254.819V50.1074C254.819 45.875 257.293 43.2054 261.135 43.2054C265.107 43.2054 266.93 45.4192 266.93 49.7818V66.8416H273.442V48.2191C273.442 41.3171 269.926 37.4753 263.544 37.4753C259.247 37.4753 256.382 39.4288 255.014 42.6844H254.559V38.0614H248.243C248.308 38.0614 248.308 66.8416 248.308 66.8416Z" fill="#D9D7E6"/>
<path fill-rule="evenodd" clip-rule="evenodd" d="M20.2133 17.1595C23.2736 19.6338 24.3806 19.4385 30.1106 19.0478L84.0898 15.7921C85.2619 15.7921 84.2852 14.6201 83.8945 14.4899L74.9088 8.04361C73.2158 6.74134 70.8717 5.17861 66.5091 5.56929L14.288 9.41099C12.3997 9.60633 12.009 10.583 12.7903 11.2993L20.2133 17.1595ZM23.469 29.7265V86.5056C23.469 89.5659 24.9666 90.6729 28.4176 90.4775L87.7362 87.0265C91.1872 86.8311 91.5779 84.7475 91.5779 82.2732V25.8848C91.5779 23.4104 90.6012 22.043 88.5175 22.2384L26.5293 25.8848C24.2503 26.0801 23.469 27.2521 23.469 29.7265ZM82.0062 32.7868C82.3968 34.4798 82.0062 36.2378 80.3132 36.4332L77.4482 37.0192V78.9524C74.9739 80.2547 72.6949 81.036 70.7415 81.036C67.6812 81.036 66.8998 80.0593 64.6208 77.1943L45.9332 47.8281V76.2176L51.8585 77.5199C51.8585 77.5199 51.8585 80.9709 47.1052 80.9709L33.9523 81.7523C33.5616 80.9709 33.9523 79.0826 35.2546 78.6919L38.7056 77.7152V40.2098L33.9523 39.8191C33.5616 38.1261 34.5383 35.6518 37.208 35.4565L51.3376 34.4798L70.8066 64.1716V37.9308L65.858 37.3448C65.4673 35.2611 67.03 33.6984 68.9183 33.503L82.0062 32.7868ZM9.92534 4.2019L64.2953 0.229968C70.9368 -0.356055 72.6949 0.0346282 76.8622 3.09497L94.1824 15.2712C97.0474 17.3549 98.0241 17.9409 98.0241 20.2199V87.0916C98.0241 91.2589 96.5265 93.7332 91.1872 94.1239L28.0921 97.9656C24.055 98.1609 22.1667 97.5749 20.0831 94.9052L7.25568 78.3013C4.9767 75.2409 4 72.9619 4 70.2923V10.8435C4 7.39247 5.56273 4.59258 9.92534 4.2019Z" fill="#D9D7E6"/>
</svg>
