<svg width="278" height="98" viewBox="0 0 278 98" fill="none" xmlns="http://www.w3.org/2000/svg">
<path d="M97 52.6206C97 67.0516 106.983 75.9999 119.603 75.9999C124.052 75.9999 128.448 74.9137 131.707 72.4827V61.2068C128.759 63.8447 124.983 65.2413 121.052 65.2413C114.483 65.2413 109.259 60.5344 109.259 52.6206C109.259 44.7068 114.483 40.1034 121.052 40.1034C124.983 40.0516 128.81 41.4482 131.759 44.0861V32.8103C128.552 30.3275 124.103 29.3965 119.655 29.3965C106.983 29.4482 97 38.3965 97 52.6206Z" fill="#D9D7E6"/>
<path d="M157.415 29.4483C144.536 29.4483 135.588 39.0173 135.588 52.6207C135.588 66.2241 144.536 76 157.415 76C170.295 76 179.346 66.3793 179.346 52.6207C179.346 38.9138 170.398 29.4483 157.415 29.4483ZM157.415 65.5C151.26 65.5 147.847 60.1207 147.847 52.6207C147.847 45.1207 151.26 39.8449 157.415 39.8449C163.571 39.8449 166.984 45.2241 166.984 52.6207C166.984 60.069 163.674 65.5 157.415 65.5Z" fill="#D9D7E6"/>
<path d="M214.515 34.1552C211.566 31.1034 207.48 29.4483 203.239 29.4483C190.256 29.4483 182.963 39.9483 182.963 52.6207C182.963 65.5 190.308 76 203.239 76C207.48 76 211.515 74.2931 214.515 71.2931V74.9655H226.877V16H214.515V34.1552ZM214.515 60.0689C212.859 63.2241 209.601 65.1896 206.084 65.1896C199.359 65.1896 195.377 59.8103 195.377 52.6724C195.377 45.4828 199.359 40.2069 206.084 40.2069C209.653 40.2069 212.911 42.2241 214.515 45.431V60.0689Z" fill="#D9D7E6"/>
<path d="M251.602 29.4483C245.654 29.4483 239.913 31.0518 236.654 33.1207V43.8276C240.275 41.4483 244.516 40.1552 248.861 40.1552C255.171 40.1552 258.844 42.8966 258.844 47.2414V49.7242C257.033 48.4311 252.688 47.0862 248.861 47.0862C239.033 47.0862 231.637 52.8793 231.637 61.4138C231.637 70.6207 239.033 75.8448 248.085 75.8448C252.947 75.8448 257.395 74.1379 258.792 72.6897V75.069H270.74V46.5173C270.792 35.6552 263.809 29.4483 251.602 29.4483ZM258.844 62.8621C257.757 65.2414 254.499 66.6897 250.982 66.6897C247.051 66.6897 243.068 65.0862 243.068 61.2069C243.068 57.3793 247.051 55.7759 250.982 55.7759C254.499 55.7759 257.706 57.2241 258.844 59.6035V62.8621Z" fill="#D9D7E6"/>
<path d="M69.7728 29.8947C74.5228 29.8947 78.9165 31.6996 82.1939 34.6446C84.3076 36.4496 87.5851 34.9771 87.5851 32.0321V13.6974C87.5851 10.1112 84.6401 7 80.8877 7H14.6974C10.945 7 8 9.94496 8 13.6974V85.4688C8 89.055 10.945 92 14.6974 92H81.0777C84.6639 92 87.7751 89.055 87.7751 85.3026V66.9916C87.7751 64.2129 84.4976 62.5742 82.3839 64.3792C78.9402 67.3241 74.689 69.1291 69.9628 69.1291C59.1805 69.1291 50.5119 60.2942 50.5119 49.5119C50.4881 38.7058 59.1567 29.8947 69.7728 29.8947Z" fill="#D9D7E6"/>
</svg>
