<svg width="278" height="98" viewBox="0 0 278 98" fill="none" xmlns="http://www.w3.org/2000/svg">
<g clip-path="url(#clip0_2038_390)">
<path d="M40.6008 60.3905C39.3809 60.8274 36.6285 61.4829 33.5632 59.8911C33.4068 59.7974 33.2504 60.0159 33.3755 60.1408C34.3452 61.1707 36.0655 63.0122 37.1289 63.8862C37.3479 64.0734 37.6919 64.0422 37.8796 63.8237L40.7885 60.6089C40.8823 60.5465 40.7572 60.328 40.6008 60.3905Z" fill="#D9D7E6"/>
<path d="M51.9545 47.063C50.3906 43.6922 48.076 40.5398 44.5416 40.1652C43.9161 40.1028 43.2592 40.2277 42.7275 40.571L38.8803 42.8495C37.9107 43.4113 36.7221 43.3488 35.8463 42.6622L32.4995 40.0716C31.3735 39.1977 30.0911 38.5734 28.7149 38.2613C22.991 36.9192 19.1125 39.9155 16.1724 45.5337C13.3573 50.9021 14.9212 58.6426 21.8337 60.4529C29.1215 62.388 33.9383 54.3042 35.8776 51.62C36.2529 51.0894 37.0036 51.0894 37.3789 51.62C40.3816 55.6775 44.3852 60.0159 48.7016 59.142C54.3942 57.9872 53.7061 50.8397 51.9545 47.063ZM30.8418 51.3391C29.4343 52.2754 27.6514 52.0569 26.588 50.4651C25.5245 48.8733 25.9937 47.1255 27.4012 46.1891C28.8087 45.2528 30.5916 45.4712 31.655 47.063C32.7185 48.6548 32.2493 50.4027 30.8418 51.3391ZM45.7615 51.62C44.3539 52.5563 42.5711 52.3378 41.5076 50.746C40.4442 49.1542 40.9134 47.4064 42.3209 46.47C43.7284 45.5337 45.5112 45.7521 46.5747 47.3439C47.6381 48.9357 47.169 50.6836 45.7615 51.62Z" fill="#D9D7E6"/>
<path d="M37.3168 53.6799C37.0353 53.3678 36.5035 53.3678 36.222 53.7112L33.1568 57.3317C33.0004 57.4878 33.0317 57.7687 33.2193 57.8935C33.9387 58.3929 35.659 59.5165 37.348 59.5165C38.9119 59.5165 40.3195 58.9235 41.0076 58.5802C41.2265 58.4553 41.2891 58.1744 41.1327 57.9872L37.3168 53.6799Z" fill="#D9D7E6"/>
<path d="M12.8884 23.467C12.9509 23.467 13.0448 23.467 13.1073 23.4982L30.2477 29.8654C31.061 29.7405 31.8429 29.6469 32.6561 29.6469C35.6276 29.6469 38.4739 30.3023 41.2889 31.9566L57.7099 30.4896C57.7412 30.4896 57.7412 30.4896 57.7725 30.4896C58.3042 30.4896 58.4919 31.2075 58.0227 31.4884L47.7948 37.5435C47.9511 37.7307 48.1388 37.918 48.2952 38.1053C53.0182 43.6298 55.9271 51.6824 57.3033 56.3329C58.1165 59.0796 57.6161 62.0447 55.9583 64.3856C52.9244 68.568 46.4498 74.3109 33.657 74.3109C19.707 74.3109 12.4505 67.4443 8.94732 63.1995C7.44597 61.3893 7.03936 58.9235 7.85259 56.7075C9.79183 51.5263 13.7329 41.601 16.892 38.0116C18.7061 35.9517 20.8017 34.1414 23.0538 32.7681L12.513 24.5906C12.0126 24.216 12.3254 23.467 12.8884 23.467ZM12.8884 22C12.0126 22 11.1993 22.5618 10.9178 23.4357C10.6363 24.2785 10.8866 25.2148 11.6372 25.7766L20.5828 32.6744C18.8625 33.9229 17.2673 35.4211 15.8285 37.0441C12.5443 40.7895 8.60326 50.6524 6.50763 56.1769C5.50673 58.8611 6.00718 61.9199 7.82131 64.1047C14.202 71.8452 22.8974 75.7467 33.657 75.7467C46.7939 75.7467 53.675 70.0349 57.1469 65.2283C59.1174 62.5129 59.6804 59.1108 58.7108 55.896C57.4284 51.5888 54.6134 43.661 50.0155 37.8868L58.7734 32.7056C59.5553 32.2687 59.9307 31.3635 59.6804 30.4896C59.4615 29.6157 58.6483 29.0226 57.7725 29.0226C57.7099 29.0226 57.6474 29.0226 57.5848 29.0226L41.633 30.4584C38.8492 28.929 35.9091 28.2111 32.6561 28.2111C31.9367 28.2111 31.1548 28.2736 30.4041 28.3672L13.639 22.1248C13.3888 22.0624 13.1386 22 12.8884 22ZM42.7277 40.5398L38.8805 42.8182C37.9109 43.3801 36.7223 43.3176 35.8465 42.631L32.4998 40.0404C31.3737 39.1665 30.0913 38.5422 28.7151 38.2301C22.9912 36.888 19.1127 39.8843 16.1726 45.5025C13.3575 50.8709 14.9214 58.6114 21.8339 60.4217C29.1217 62.3568 33.9385 54.273 35.8778 51.5888C36.2531 51.0582 37.0038 51.0582 37.3791 51.5888C40.3818 55.6463 44.3854 59.9847 48.7018 59.1108C54.3319 57.9872 53.675 50.8397 51.9235 47.0318C50.3596 43.661 48.045 40.5086 44.5106 40.134C43.9163 40.0716 43.2594 40.2277 42.7277 40.5398ZM30.842 51.3391C29.4345 52.2754 27.6516 52.0569 26.5882 50.4651C25.5247 48.8733 25.9939 47.1255 27.4014 46.1891C28.8089 45.2528 30.5918 45.4713 31.6552 47.0631C32.7187 48.6549 32.2495 50.4027 30.842 51.3391ZM46.5749 47.344C47.6384 48.9358 47.1692 50.6836 45.7617 51.62C44.3542 52.5563 42.5713 52.3378 41.5079 50.746C40.4444 49.1542 40.9136 47.4064 42.3211 46.47C43.6973 45.5337 45.4802 45.7522 46.5749 47.344ZM41.1325 57.956C41.2889 58.1432 41.2576 58.4241 41.0074 58.549C40.3193 58.8923 38.9118 59.4853 37.3479 59.4853C35.6588 59.4853 33.9385 58.3929 33.2191 57.8623C33.0315 57.7375 33.0002 57.4878 33.1566 57.3005L36.2218 53.6799C36.5034 53.3366 37.0038 53.3366 37.3166 53.6487L41.1325 57.956ZM40.7885 60.6714L37.8796 63.8862C37.6919 64.1047 37.3479 64.1047 37.1289 63.9486C36.0967 63.0435 34.3452 61.2332 33.3755 60.2032C33.2504 60.0784 33.4068 59.8911 33.5632 59.9535C36.6285 61.5453 39.3809 60.8899 40.6008 60.4529C40.7572 60.3281 40.8823 60.5465 40.7885 60.6714Z" fill="#D9D7E6"/>
<path d="M72.0977 63.9486V39.6971H77.4775V50.2154H95.3373V39.6971H100.717V63.9174H95.3373V54.7412H77.4775V63.9174H72.0977V63.9486Z" fill="#D9D7E6"/>
<path d="M115.95 64.5417C112.384 64.5417 109.507 63.6053 107.349 61.7638C105.159 59.9223 104.096 57.4878 104.096 54.4602C104.096 51.4327 105.19 48.9982 107.349 47.1567C109.538 45.3152 112.384 44.3788 115.95 44.3788C119.547 44.3788 122.425 45.3152 124.614 47.1567C126.804 48.9982 127.867 51.4327 127.867 54.4602C127.867 57.4878 126.772 59.9223 124.614 61.7638C122.425 63.6365 119.547 64.5417 115.95 64.5417ZM115.95 60.3905C118.014 60.3905 119.703 59.8599 120.955 58.7675C122.206 57.6751 122.863 56.2705 122.863 54.4915C122.863 52.7124 122.237 51.2454 120.955 50.1842C119.703 49.0918 118.014 48.5612 115.95 48.5612C113.886 48.5612 112.259 49.123 110.977 50.2154C109.726 51.3079 109.069 52.7436 109.069 54.5227C109.069 56.3017 109.694 57.7063 110.977 58.7987C112.259 59.8287 113.917 60.3905 115.95 60.3905Z" fill="#D9D7E6"/>
<path d="M142.161 64.5417C138.595 64.5417 135.718 63.6053 133.56 61.7638C131.37 59.9223 130.307 57.4878 130.307 54.4602C130.307 51.4327 131.401 48.9982 133.56 47.1567C135.749 45.3152 138.595 44.3788 142.161 44.3788C145.758 44.3788 148.636 45.3152 150.825 47.1567C153.015 48.9982 154.078 51.4327 154.078 54.4602C154.078 57.4878 152.983 59.9223 150.825 61.7638C148.636 63.6365 145.758 64.5417 142.161 64.5417ZM142.161 60.3905C144.225 60.3905 145.914 59.8599 147.166 58.7675C148.417 57.6751 149.074 56.2705 149.074 54.4915C149.074 52.7124 148.448 51.2454 147.166 50.1842C145.914 49.0918 144.225 48.5612 142.161 48.5612C140.097 48.5612 138.47 49.123 137.188 50.2154C135.937 51.3079 135.28 52.7436 135.28 54.5227C135.28 56.3017 135.905 57.7063 137.188 58.7987C138.439 59.8287 140.097 60.3905 142.161 60.3905Z" fill="#D9D7E6"/>
<path d="M164.023 64.3232C161.646 64.3232 160.301 63.2308 159.613 62.232C158.894 61.2332 158.331 59.9535 158.331 57.1445V48.9358H155.609V45.0031H159.113V39.6971H163.742V45.0031H169.215V48.9046H163.742V55.9896C163.71 58.112 164.054 58.8611 164.555 59.3917C165.462 60.2969 168.214 59.6726 169.215 59.0484V63.1371C168.027 63.9486 165.931 64.3232 164.023 64.3232Z" fill="#D9D7E6"/>
<path d="M182.916 64.5417C179.538 64.5417 176.16 64.0423 172.751 63.0747V58.7675C175.597 59.8599 178.694 60.3905 182.04 60.3905C184.449 60.3905 186.169 60.2344 187.201 59.9223C188.233 59.6102 188.765 59.0796 188.765 58.2993C188.765 57.5814 188.202 57.0508 187.045 56.7699C185.888 56.489 184.48 56.3017 182.822 56.2081C181.165 56.1457 179.507 55.9896 177.849 55.7711C176.191 55.5527 174.784 55.0221 173.627 54.2106C172.469 53.3678 171.906 52.213 171.906 50.6836C171.906 48.6237 172.907 47.0631 174.909 46.0019C176.911 44.9407 179.632 44.4101 183.073 44.4101C185.794 44.4101 188.953 44.7534 192.55 45.4713V49.6224C189.453 48.967 186.451 48.6237 183.636 48.6237C179.35 48.6237 177.192 49.2791 177.192 50.59C177.192 51.2454 177.787 51.7136 178.944 51.9633C180.101 52.213 181.509 52.4003 183.166 52.5251C184.824 52.6188 186.451 52.806 188.108 53.0245C189.766 53.2742 191.174 53.8048 192.331 54.6787C193.488 55.5527 194.082 56.7387 194.082 58.2681C194.082 60.3905 193.082 61.9511 191.111 62.9811C189.14 64.0423 186.388 64.5417 182.916 64.5417Z" fill="#D9D7E6"/>
<path d="M219.825 45.0031V63.9486H213.914L214.664 56.1457H214.351C213.476 61.7638 210.348 64.5417 205.031 64.5417C202.309 64.4792 200.308 63.6053 199.025 61.8574C197.774 60.1408 197.117 57.2381 197.117 53.2118V45.0031H202.497V52.5875C202.497 55.4278 202.904 57.4566 203.717 58.6738C204.53 59.8911 205.844 60.4841 207.689 60.4841C209.754 60.4841 211.38 59.5478 212.569 57.6751C213.788 55.8024 214.383 53.3366 214.383 50.2154V45.0031H219.825Z" fill="#D9D7E6"/>
<path d="M227.144 43.1928C226.111 43.1928 225.298 42.9431 224.704 42.4125C224.11 41.8819 223.828 41.1328 223.828 40.134C223.828 39.1353 224.11 38.355 224.704 37.8556C225.298 37.3562 226.08 37.1065 227.144 37.1065C228.207 37.1065 229.02 37.3562 229.615 37.8556C230.209 38.355 230.522 39.1041 230.522 40.134C230.522 42.1628 229.396 43.1928 227.144 43.1928ZM224.516 63.9486V45.0031H229.896V63.9486H224.516Z" fill="#D9D7E6"/>
<path d="M260.266 64.5417C256.826 64.5417 254.073 63.6053 251.977 61.7638C249.882 59.9223 248.85 57.4878 248.85 54.4602C248.85 51.4327 249.882 48.9982 251.977 47.1567C254.073 45.3152 256.826 44.3788 260.266 44.3788C263.644 44.3788 266.397 45.1591 268.492 46.7509C270.588 48.3427 271.651 50.4027 271.714 52.9933V56.0833H254.042C254.355 57.6126 255.137 58.7363 256.45 59.4229C257.764 60.1096 259.672 60.4529 262.205 60.4529C265.552 60.4529 267.053 59.9223 268.68 59.3293C268.93 59.2356 270.713 58.4554 270.869 58.3929V62.7002C268.961 63.418 267.304 63.9174 265.896 64.1671C264.457 64.4168 262.581 64.5417 260.266 64.5417ZM253.885 53.4927L266.553 53.1806C266.49 51.5263 265.927 50.3091 264.927 49.5912C263.926 48.8733 262.362 48.4988 260.266 48.4988C258.233 48.4988 256.732 48.8733 255.7 49.6536C254.667 50.4651 254.073 51.7136 253.885 53.4927Z" fill="#D9D7E6"/>
<path d="M241.906 64.3232C239.529 64.3232 238.184 63.2308 237.496 62.232C236.776 61.2332 236.213 59.9535 236.213 57.1445V48.9358H233.492V45.0031H236.995V39.6971H241.625V45.0031H247.098V48.9046H241.625V55.9896C241.593 58.112 241.937 58.8611 242.438 59.3917C243.345 60.2969 246.097 59.6726 247.098 59.0484V63.1371C245.941 63.9486 243.845 64.3232 241.906 64.3232Z" fill="#D9D7E6"/>
</g>
<defs>
<clipPath id="clip0_2038_390">
<rect width="278" height="53.7467" fill="white" transform="translate(0 22)"/>
</clipPath>
</defs>
</svg>
