<svg width="278" height="98" viewBox="0 0 278 98" fill="none" xmlns="http://www.w3.org/2000/svg">
<path d="M99.618 31.9615C99.4998 39.1764 96.5793 45.2615 93.2975 51.2172C90.9796 55.4234 88.0419 59.1868 84.7677 62.6801C83.7703 63.7443 83.501 64.6309 84.1923 66.0449C85.5039 68.7277 86.7056 71.4844 87.6939 74.3013C90.607 82.6053 85.8973 90.5991 77.2594 91.7076C72.7249 92.2894 69.0468 90.178 66.5159 86.4361C64.9658 84.1444 63.7201 81.6333 62.4847 79.1477C61.8041 77.7782 61.0238 77.275 59.4662 77.6256C52.138 79.2752 44.7854 79.2774 37.4567 77.6131C36.1298 77.3117 35.481 77.813 34.9536 78.9332C33.7406 81.51 32.6001 84.1298 30.9339 86.4668C28.2859 90.1808 24.6717 92.0726 20.1299 91.7315C15.2156 91.3624 11.6843 88.7048 9.83073 84.1945C8.34338 80.5753 8.62573 76.7723 9.97499 73.133C10.7899 70.9349 11.7858 68.7833 12.9162 66.7296C13.7204 65.2685 13.4554 64.3679 12.3264 63.228C7.86073 58.7196 4.24388 53.6375 2.51116 47.4263C0.327948 39.6001 5.35728 31.9554 13.4225 31.1116C17.5296 30.6819 20.8708 32.6056 23.6039 35.591C24.3176 36.3706 24.9604 37.215 25.7603 38.1799C27.1565 36.231 27.8296 34.1294 28.7641 32.1705C31.9233 25.5489 34.7225 18.7519 38.3391 12.3537C43.0289 4.05676 53.9911 3.82795 58.9312 12.0073C62.8803 18.546 65.551 25.7299 68.8842 32.5815C69.7132 34.2856 70.3759 36.0929 71.8951 37.9578C73.5136 35.1635 74.4636 32.4514 75.3082 29.7081C75.8784 27.8561 76.5333 26.0496 77.6392 24.4587C80.9184 19.7414 85.9565 18.0058 91.2956 19.6983C96.5637 21.3683 99.598 25.7638 99.618 31.9615ZM38.1339 50.6533C39.6355 51.5565 40.7625 51.4006 41.4751 49.6147C41.8687 48.6283 42.4789 47.7306 42.9441 46.7699C44.1858 44.2059 45.3267 41.5899 46.6506 39.0698C47.8119 36.8593 49.0912 36.8627 50.387 38.9332C50.6135 39.2952 50.8293 39.6672 51.0135 40.0521C54.2412 46.7962 57.4954 53.528 60.6778 60.2936C64.1026 67.5747 67.4145 74.909 70.8667 82.1769C72.2658 85.1224 75.624 86.4694 78.1548 85.335C82.0052 83.6093 83.5065 79.8086 81.7822 75.9917C74.3937 59.6372 66.9982 43.286 59.5774 26.9462C57.8989 23.2504 56.1894 19.5641 54.3395 15.9526C53.26 13.845 51.4745 12.0714 49.0386 12.1663C46.5998 12.2614 44.3557 13.4127 43.198 15.8911C38.9178 25.054 34.6481 34.2219 30.3422 43.3728C29.782 44.5634 30.0854 45.2922 31.0659 46.0979C33.172 47.8287 35.4196 49.3118 38.1339 50.6533ZM32.9489 55.1C27.5778 51.987 23.3506 47.7639 20.4122 42.2669C19.9791 41.4567 19.4091 40.7061 18.8222 39.9941C16.6497 37.3579 14.1592 36.7076 11.4932 38.0307C8.73334 39.4003 7.49656 42.1762 8.30663 45.4081C9.74921 51.1635 13.3304 55.5692 17.4854 59.5588C28.4925 70.128 41.523 74.4024 56.668 72.0439C58.3557 71.7811 58.92 71.0731 58.1496 69.4509C56.7436 66.4903 55.3432 63.5261 54.0137 60.5309C53.4911 59.3535 52.709 58.9436 51.4835 59.1421C44.8961 60.2091 38.9483 58.2566 32.9489 55.1ZM91.5111 26.8414C87.0491 24.0271 83.8944 24.972 81.7919 29.7836C81.3943 30.6935 81.0884 31.647 80.7904 32.5962C79.5469 36.5569 77.9433 40.3536 75.5241 43.7477C74.8605 44.6786 74.742 45.4902 75.2237 46.5003C76.7553 49.712 78.2812 52.9271 79.7457 56.1697C80.4913 57.8206 81.3326 57.5292 82.2427 56.4062C87.783 49.5698 92.0681 42.0947 93.6465 33.3159C94.0654 30.9856 93.5614 28.7751 91.5111 26.8414ZM19.0878 85.2303C21.9302 86.1754 23.3789 85.774 25.3309 83.5522C27.0525 81.5928 28.0161 79.2109 29.1184 76.9018C29.6078 75.8767 29.3843 75.2472 28.3451 74.6759C25.6047 73.1692 22.902 71.5894 20.2351 69.9558C19.0862 69.252 18.4142 69.5143 17.8863 70.6508C16.898 72.7787 15.859 74.8835 15.2848 77.1779C14.3225 81.0232 15.2774 83.1906 19.0878 85.2303ZM46.9646 53.5624C48.427 53.6437 49.9211 53.876 51.2451 52.714C50.6325 50.859 50.0707 49.0702 48.3072 47.6165C47.4201 49.6051 45.4322 51.0089 46.9646 53.5624Z" fill="white" fill-opacity="0.87"/>
<path d="M221.713 31.2254C227.562 36.6451 227.827 46.6487 221.415 51.2324C220.216 52.0896 220.343 53.036 220.848 54.2C222.577 58.1831 224.252 62.189 225.954 66.1837C226.46 67.3712 226.61 68.4929 225.633 69.5573C223.861 71.4875 221.705 71.2575 220.465 68.7951C219.056 65.9999 217.946 63.055 216.555 60.2507C213.445 53.984 215.05 54.7174 208.304 56.2269C205.323 56.8941 202.41 57.8646 199.441 58.5931C198.114 58.9185 197.576 59.5366 197.567 60.9447C197.555 63.1458 197.378 65.354 197.128 67.543C196.957 69.0459 196.632 70.5348 194.585 70.6477C192.555 70.7597 191.56 69.8391 191.281 67.8777C190.686 63.7061 190.756 59.5036 190.64 55.3113C190.429 47.6888 190.631 40.0683 190.927 32.4515C191.042 29.4766 191.974 28.6121 194.934 28.3577C201.697 27.7764 208.456 28.0999 215.213 28.4325C217.643 28.552 219.742 29.5808 221.713 31.2254ZM215.166 34.9225C209.856 34.0794 204.532 34.0035 199.191 34.5766C198.341 34.6678 197.619 34.8329 197.62 35.9001C197.623 40.7489 197.615 45.5977 197.637 50.4464C197.642 51.5118 198.294 52.0783 199.313 51.8762C204.966 50.7556 210.679 49.7585 215.96 47.3675C218.658 46.1458 219.855 43.6885 219.598 40.6715C219.368 37.9803 218.278 35.8793 215.166 34.9225Z" fill="white" fill-opacity="0.87"/>
<path d="M159.406 64.1932C154.913 64.872 150.693 64.1857 146.523 63.2784C144.99 62.9448 144.297 63.4154 143.73 64.6978C143.014 66.3178 142.436 68.0145 141.196 69.365C140.007 70.6595 138.636 71.2862 137.029 70.3268C135.389 69.3472 135.374 67.8812 136.071 66.2255C139.303 58.5469 142.94 51.0549 146.47 43.5138C148.522 39.13 150.722 34.8156 152.773 30.4313C153.516 28.8423 154.781 28.2272 156.345 28.2061C157.929 28.1847 159.188 28.854 159.948 30.4004C165.787 42.2854 171.363 54.2901 176.371 66.5505C177.354 68.9553 176.312 70.692 173.994 70.8242C172.71 70.8974 171.831 70.2445 171.235 69.1656C170.374 67.6081 169.529 66.0423 168.682 64.4778C168.076 63.3596 167.326 62.8575 165.911 63.1924C163.844 63.6816 161.707 63.8712 159.406 64.1932ZM148.267 55.2827C147.749 56.5923 147.658 57.8359 149.502 57.8666C153.918 57.9402 158.338 57.9381 162.752 57.8287C164.421 57.7874 165.169 56.9363 164.381 55.1207C162.395 50.5447 160.322 46.0134 157.927 41.6367C156.653 39.3092 155.996 39.3051 154.701 41.6583C152.33 45.9676 150.296 50.4415 148.267 55.2827Z" fill="white" fill-opacity="0.87"/>
<path d="M263.955 64.686C266.107 63.9879 267.883 62.9547 269.543 61.6989C270.052 61.3135 270.567 60.9049 271.141 60.6413C272.712 59.9198 274.234 59.9224 275.35 61.4444C276.39 62.8626 276.071 64.3268 275.014 65.5612C272.472 68.5299 269.146 70.5368 265.432 71.2668C253.766 73.5598 244.359 68.3948 240.226 57.3833C236.365 47.0972 240.784 35.7634 250.413 30.4344C256.398 27.1217 268.541 27.1265 274.572 33.9882C276.198 35.8392 276.454 37.2159 275.247 38.713C274.075 40.1679 272.584 40.2464 270.521 38.8485C268.044 37.1696 265.63 35.485 262.529 35.003C254.474 33.7509 246.865 39.2105 245.604 47.2865C244.285 55.7332 249.339 63.1555 257.669 64.9722C259.721 65.4196 261.769 65.3274 263.955 64.686Z" fill="white" fill-opacity="0.87"/>
</svg>
