<svg width="278" height="98" viewBox="0 0 278 98" fill="none" xmlns="http://www.w3.org/2000/svg">
<path d="M67.3892 47.0294C67.1329 52.6528 63.2032 60.3563 55.6074 70.1323C47.7554 80.3428 41.1106 85.45 35.6729 85.45C32.3077 85.45 29.4589 82.3411 27.13 76.1197C25.5774 70.4183 24.0212 64.7206 22.4686 59.0191C20.7414 52.8014 18.888 49.6888 16.9046 49.6888C16.4737 49.6888 14.9583 50.5988 12.3694 52.4114L9.6543 48.9088C12.5032 46.4054 15.3149 43.8983 18.082 41.3874C21.8854 38.104 24.738 36.3731 26.6434 36.1986C31.1377 35.7677 33.9049 38.8431 34.9449 45.4211C36.0666 52.5228 36.8429 56.9391 37.2774 58.6663C38.5737 64.5571 40 67.4988 41.5563 67.4988C42.7672 67.4988 44.5834 65.586 47.0052 61.7677C49.4232 57.9457 50.7194 55.0374 50.894 53.0428C51.2394 49.7446 49.9432 48.0917 47.0052 48.0917C45.6197 48.0917 44.1934 48.4074 42.73 49.0388C45.5677 39.7383 50.9906 35.218 58.9986 35.4743C64.934 35.6488 67.7309 39.5006 67.3892 47.0294Z" fill="#D9D7E6"/>
<path d="M91.7578 19.124C91.6724 21.2783 90.5915 23.3434 88.5115 25.3231C86.1789 27.5591 83.4118 28.6771 80.2138 28.6771C75.2849 28.6771 72.9041 26.5266 73.0787 22.2254C73.1604 19.9894 74.4827 17.8351 77.0307 15.77C79.5824 13.7086 82.4127 12.6723 85.5289 12.6723C87.3452 12.6723 88.8569 13.3854 90.0715 14.8043C91.2787 16.2231 91.8432 17.6643 91.7578 19.124ZM103.042 65.2517C100.62 69.8277 97.2921 73.9766 93.0541 77.6908C87.2598 82.7014 81.4692 85.2086 75.6749 85.2086C72.9895 85.2086 70.9392 84.3431 69.5129 82.6123C68.0867 80.8851 67.4144 78.6417 67.5035 75.8746C67.5852 73.0257 68.4729 68.6168 70.1592 62.6517C71.8455 56.6903 72.6924 53.4923 72.6924 53.0614C72.6924 50.8143 71.9124 49.6888 70.3561 49.6888C69.8398 49.6888 68.3652 50.5988 65.9435 52.4114L62.9609 48.9088C65.7281 46.4054 68.4952 43.8983 71.2624 41.3874C74.9804 38.104 77.7475 36.3731 79.5675 36.1986C82.4201 35.9423 84.5149 36.7817 85.8558 38.7206C87.1929 40.6631 87.6907 43.1777 87.3489 46.2791C86.2235 51.5348 85.0127 58.2094 83.7164 66.3066C83.6272 70.0134 84.9681 71.8631 87.7352 71.8631C88.9461 71.8631 91.1078 70.5854 94.2204 68.0263C96.8167 65.8943 98.9338 63.8886 100.579 62.0091L103.042 65.2517Z" fill="#D9D7E6"/>
<path d="M184.043 65.248C181.622 69.8277 178.294 73.9729 174.056 77.6872C168.261 82.6977 162.467 85.2049 156.677 85.2049C151.053 85.2049 148.331 82.096 148.505 75.8709C148.587 73.1037 149.129 69.7832 150.125 65.8943C151.116 62.0017 151.659 58.9783 151.744 56.8166C151.833 53.5369 150.834 51.8914 148.75 51.8914C146.496 51.8914 143.807 54.5732 140.683 59.9329C137.388 65.5563 135.605 71.0014 135.349 76.2757C135.163 79.9974 135.535 82.85 136.437 84.8372C130.405 85.0117 126.179 84.0163 123.768 81.8546C121.606 79.9529 120.618 76.7994 120.793 72.3869C120.867 69.6197 121.298 66.8526 122.067 64.0854C122.828 61.3183 123.252 58.8557 123.337 56.6903C123.523 53.4923 122.342 51.8914 119.831 51.8914C117.665 51.8914 115.325 54.3577 112.818 59.2866C110.307 64.2117 108.922 69.3597 108.662 74.7194C108.476 79.5666 108.811 82.9354 109.591 84.8372C103.655 85.0117 99.4394 83.76 96.9471 81.0857C94.8745 78.846 93.9311 75.44 94.1057 70.8677C94.18 68.628 94.5848 65.5006 95.298 61.4929C96.0111 57.4814 96.4085 54.3577 96.4903 52.1143C96.676 50.5654 96.2674 49.7854 95.324 49.7854C94.804 49.7854 93.3331 50.662 90.9114 52.4114L87.7988 48.9089C88.2334 48.5672 90.9523 46.0563 95.9703 41.3874C99.6028 38.0186 102.065 36.2877 103.362 36.2023C105.613 36.0277 107.425 36.9563 108.811 38.988C110.192 41.0197 110.887 43.3783 110.887 46.0563C110.887 46.9217 110.813 47.7426 110.627 48.5226C111.923 46.5354 113.435 44.8009 115.166 43.33C119.144 39.8757 123.597 37.9257 128.526 37.4949C132.764 37.1494 135.787 38.1412 137.607 40.4774C139.075 42.3792 139.765 45.1054 139.68 48.6489C140.285 48.1326 140.935 47.568 141.63 46.9626C143.613 44.63 145.56 42.7729 147.461 41.3874C150.659 39.0512 153.995 37.7549 157.449 37.4949C161.602 37.1494 164.584 38.1374 166.401 40.4663C167.953 42.3606 168.648 45.0757 168.477 48.6043C168.388 51.0186 167.805 54.5286 166.724 59.138C165.639 63.7474 165.104 66.392 165.104 67.0829C165.015 68.8954 165.19 70.1434 165.621 70.8306C166.055 71.5214 167.088 71.8632 168.733 71.8632C169.944 71.8632 172.102 70.5854 175.218 68.0226C177.811 65.8943 179.932 63.8886 181.577 62.0092L184.043 65.248Z" fill="#D9D7E6"/>
<path d="M203.238 51.572C203.32 49.2506 202.373 48.088 200.389 48.088C197.797 48.088 195.163 49.8746 192.489 53.444C189.811 57.0134 188.429 60.4343 188.344 63.7029C188.295 63.7029 188.295 64.2637 188.344 65.3817C192.574 63.8329 196.244 61.4706 199.353 58.2837C201.856 55.5314 203.149 53.2917 203.238 51.572ZM232.681 65.1143C230.174 69.2632 225.245 73.4046 217.895 77.5497C208.731 82.8166 199.431 85.4463 190.008 85.4463C183.006 85.4463 177.985 83.1137 174.961 78.4449C172.799 75.2469 171.763 71.4434 171.849 67.0346C171.934 60.0332 175.05 53.3771 181.19 47.0629C187.931 40.1469 195.887 36.6852 205.054 36.6852C213.53 36.6852 218.025 40.1394 218.545 47.0369C218.89 51.4346 216.468 55.966 211.279 60.6237C205.745 65.716 198.781 68.9474 190.398 70.3254C191.95 72.4834 194.283 73.5606 197.399 73.5606C203.624 73.5606 210.414 71.9783 217.765 68.81C223.039 66.5852 227.191 64.2749 230.219 61.8791L232.681 65.1143Z" fill="#D9D7E6"/>
<path d="M253.233 55.9326C253.318 53.5926 252.995 51.4494 252.26 49.4994C251.524 47.5531 250.462 46.5726 249.084 46.5726C244.672 46.5726 241.039 48.9571 238.19 53.7226C235.765 57.6226 234.465 61.7826 234.298 66.1951C234.208 68.3643 234.598 70.2734 235.464 71.9151C236.411 73.8243 237.752 74.7751 239.486 74.7751C243.375 74.7751 246.707 72.4834 249.474 67.8888C251.807 64.0743 253.058 60.0888 253.233 55.9326ZM267.89 56.4228C267.544 64.3677 264.606 71.2317 259.072 77.0148C253.538 82.798 246.659 85.6914 238.446 85.6914C231.616 85.6914 226.427 83.4888 222.884 79.0837C220.291 75.804 218.861 71.7034 218.605 66.7857C218.166 59.3571 220.848 52.5377 226.646 46.32C232.871 39.4151 240.694 35.9608 250.12 35.9608C256.171 35.9608 260.755 37.9926 263.871 42.0486C266.813 45.7628 268.15 50.5543 267.89 56.4228Z" fill="#D9D7E6"/>
</svg>
