<svg width="278" height="98" viewBox="0 0 278 98" fill="none" xmlns="http://www.w3.org/2000/svg">
<path d="M1 76.0865C1 79.6335 3.30179 81.9407 6.85421 81.9407H23.9586C34.1631 81.9407 42.5077 78.4907 48.184 72.4478H1V76.0865ZM23.9586 17H6.85421C3.30179 17 1 19.3018 1 22.8542V26.4929H48.1894C42.5131 20.45 34.1631 17 23.9586 17ZM38.8852 58.7233C38.8852 61.5965 40.7558 63.4563 43.6398 63.4563H53.8873C55.0517 60.5723 55.8279 57.408 56.1945 53.985H43.6398C40.7612 53.9904 38.8852 55.8501 38.8852 58.7233ZM24.681 40.2389C24.681 43.1121 26.5515 44.9719 29.4355 44.9719H56.1999C55.8387 41.5542 55.0571 38.3846 53.8927 35.5006H29.4355C26.5515 35.506 24.681 37.3711 24.681 40.2389ZM29.4355 58.7233C29.4355 55.8501 27.5649 53.9904 24.681 53.9904H1V63.4617H24.6756C27.5649 63.4563 29.4355 61.5965 29.4355 58.7233ZM15.2258 40.2389C15.2258 37.3657 13.3553 35.506 10.4713 35.506H1V44.9773H10.4713C13.3553 44.9773 15.2258 43.1121 15.2258 40.2389Z" fill="white" fill-opacity="0.87"/>
<path d="M93.5397 59.2139C88.4726 59.2139 85.4215 55.5806 85.4215 51.0957C85.4215 46.6107 88.5265 42.9774 93.5397 42.9774C98.553 42.9774 101.658 46.6107 101.658 51.0957C101.658 55.5753 98.6123 59.2139 93.5397 59.2139ZM101.103 40.7726C99.0759 38.3415 96.2027 36.8483 92.6341 36.8483C84.6614 36.8483 78.9258 43.3062 78.9258 51.2735C78.9258 59.2409 84.6075 65.6988 92.6341 65.6988C96.2027 65.6988 99.0759 64.211 101.103 61.7745V64.9873H108.148V26.7355H101.103V40.7726ZM121.377 48.492C122.137 44.7886 124.6 42.9019 127.835 42.9019C131.042 42.9019 133.387 44.8695 134.136 48.492H121.377ZM128.013 36.4817C119.77 36.4817 114.649 43.0798 114.649 51.1496C114.649 59.505 120.126 65.7042 128.266 65.7042C133.878 65.7042 137.285 63.1006 139.392 59.8285L134.153 56.4755C132.837 58.2813 130.73 59.2301 128.466 59.2301C124.768 59.2301 122.293 57.4943 121.452 54.0282H135.285L140.325 54.0713C140.514 53.1603 140.627 52.2169 140.627 51.1496C140.621 44.1202 136.303 36.4817 128.013 36.4817ZM162.173 50.6159C164.087 51.9528 165.3 53.9581 165.3 56.5995C165.3 61.9416 161.699 65.6503 154.96 65.6503C148.621 65.6503 145.225 62.4052 143.872 59.1223L149.688 55.7262L149.742 55.9203C149.985 56.6642 151.095 59.2678 154.853 59.2678C157.569 59.2678 158.405 58.0657 158.405 57.0092L158.389 56.7558C158.313 56.2437 157.952 55.4998 156.319 54.8529L155.526 54.5672C151.505 53.2088 144.939 52.1846 144.939 45.6404C144.939 39.9155 149.43 36.859 154.96 36.859C160.135 36.859 163.461 40.0772 164.723 42.5839L159.03 45.9099L158.912 45.6511C158.556 44.9611 157.386 43.1283 155.014 43.1283C152.093 43.1283 151.828 44.821 151.828 45.3115C151.828 46.6484 153.101 47.2468 155.817 48.0769L157.823 48.6753C158.998 49.0364 160.2 49.4623 161.435 50.1577L162.173 50.6159ZM182.037 58.7827C184.83 58.7827 186.981 57.3919 188.07 55.1063L193.908 58.6048C191.622 62.7933 187.358 65.7096 182.043 65.7096C173.978 65.7096 168.34 59.2624 168.34 51.3113C168.34 43.3601 174.032 36.913 182.043 36.913C187.283 36.913 191.53 39.7808 193.843 43.9154L188.016 47.4893C186.911 45.2361 184.776 43.8345 182.043 43.8345C177.968 43.8345 175.073 47.1767 175.073 51.3059C175.067 55.4351 177.935 58.7827 182.037 58.7827ZM205.611 42.2065C206.872 38.9236 209.443 37.0477 213.319 37.0369V44.8372C208.953 44.3951 205.751 46.6107 205.616 51.8449L205.611 52.4757V64.6638H199.066V37.576H205.611V42.2065ZM217.804 64.6638V37.576H224.348V64.6638H217.804ZM217.804 33.9589V26.7409H224.564V33.9589H217.804ZM244.784 36.762C252.191 36.762 257.511 43.1661 257.511 51.0633C257.511 58.9606 252.239 65.3646 244.784 65.3646C241.469 65.3646 238.801 63.8876 236.925 61.478V75.4451H230.38V37.5221H236.925V40.654C238.806 38.239 241.474 36.762 244.784 36.762ZM243.949 43.4302C239.615 43.4302 236.925 46.8479 236.925 51.0687C236.925 55.2896 239.561 58.7072 243.949 58.7072C248.337 58.7072 250.973 55.2896 250.973 51.0687C250.973 46.8479 248.288 43.4302 243.949 43.4302ZM276.998 44.3843H271.101V55.7262C271.101 59.2732 274.546 58.5077 276.998 58.5077V64.8902L276.352 64.9711C275.759 65.0304 274.767 65.1059 273.451 65.1059L272.492 65.0843C267.931 64.8795 264.363 63.0736 264.363 55.7262V44.3843H259.819V37.6245H264.363V29.9914H271.096V37.6245H276.998V44.3843Z" fill="white" fill-opacity="0.87"/>
</svg>
